<?xml version="1.0" encoding="UTF-8"?> <svg xmlns="http://www.w3.org/2000/svg" width="20" height="20" viewBox="0 0 20 20"><path fill="#E52220" fill-rule="evenodd" d="M19.7460938,9.25390625 C19.83724,9.33203164 19.9023436,9.41666621 19.9414062,9.5078125 C19.9804689,9.59895879 20,9.70963477 20,9.83984375 L20,14 C20,14.2473971 19.925131,14.449218 19.7753906,14.6054688 C19.6256503,14.7617195 19.4205742,14.8398438 19.1601562,14.8398438 L17.9101562,14.8398438 C18.0403652,15.0481781 18.128255,15.2565094 18.1738281,15.4648438 C18.2194013,15.6731781 18.2421875,15.8815094 18.2421875,16.0898438 C18.2421875,16.8710977 17.955732,17.5514294 17.3828125,18.1308594 C16.809893,18.7102894 16.1263061,19 15.3320312,19 C14.5377564,19 13.8541695,18.7102894 13.28125,18.1308594 C12.7083305,17.5514294 12.421875,16.8710977 12.421875,16.0898438 C12.421875,15.8815094 12.4544268,15.6731781 12.5195312,15.4648438 C12.5846357,15.2565094 12.66276,15.0481781 12.7539062,14.8398438 L7.16796875,14.8398438 C7.29817773,15.0481781 7.38606748,15.2565094 7.43164062,15.4648438 C7.47721377,15.6731781 7.5,15.8815094 7.5,16.0898438 C7.5,16.8710977 7.21028936,17.5514294 6.63085938,18.1308594 C6.05142939,18.7102894 5.37109766,19 4.58984375,19 C3.79556895,19 3.10872686,18.7102894 2.52929688,18.1308594 C1.94986689,17.5514294 1.66015625,16.8710977 1.66015625,16.0898438 C1.66015625,15.8815094 1.68619766,15.6731781 1.73828125,15.4648438 C1.79036484,15.2565094 1.87499941,15.0481781 1.9921875,14.8398438 L0.83984375,14.8398438 C0.579425781,14.8398438 0.374349707,14.7617195 0.224609375,14.6054688 C0.074869043,14.449218 0,14.2473971 0,14 L0,3.16015625 C0,2.91275918 0.074869043,2.71419346 0.224609375,2.56445312 C0.374349707,2.41471279 0.579425781,2.33984375 0.83984375,2.33984375 L13.3398438,2.33984375 C13.5872408,2.33984375 13.7858065,2.41471279 13.9355469,2.56445312 C14.0852872,2.71419346 14.1601562,2.91275918 14.1601562,3.16015625 L14.1601562,6.5 L16.6601562,6.5 C16.7903652,6.5 16.9010412,6.51953105 16.9921875,6.55859375 C17.0833338,6.59765645 17.1679684,6.66275996 17.2460938,6.75390625 L19.7460938,9.25390625 Z M1.66015625,4 L1.66015625,13.1601562 L12.5,13.1601562 L12.5,4 L1.66015625,4 Z M5.83984375,16.0898438 C5.83984375,15.7513004 5.71289189,15.4583346 5.45898438,15.2109375 C5.20507686,14.9635404 4.91536621,14.8398438 4.58984375,14.8398438 C4.25130039,14.8398438 3.95833457,14.9635404 3.7109375,15.2109375 C3.46354043,15.4583346 3.33984375,15.7513004 3.33984375,16.0898438 C3.33984375,16.4153662 3.46354043,16.7050769 3.7109375,16.9589844 C3.95833457,17.2128919 4.25130039,17.3398438 4.58984375,17.3398438 C4.91536621,17.3398438 5.20507686,17.2128919 5.45898438,16.9589844 C5.71289189,16.7050769 5.83984375,16.4153662 5.83984375,16.0898438 Z M16.6601562,16.0898438 C16.6601562,15.7513004 16.5364596,15.4583346 16.2890625,15.2109375 C16.0416654,14.9635404 15.7486996,14.8398438 15.4101562,14.8398438 C15.0846338,14.8398438 14.7949231,14.9635404 14.5410156,15.2109375 C14.2871081,15.4583346 14.1601562,15.7513004 14.1601562,16.0898438 C14.1601562,16.4153662 14.2871081,16.7050769 14.5410156,16.9589844 C14.7949231,17.2128919 15.0846338,17.3398438 15.4101562,17.3398438 C15.7486996,17.3398438 16.0416654,17.2128919 16.2890625,16.9589844 C16.5364596,16.7050769 16.6601562,16.4153662 16.6601562,16.0898438 Z M18.3398438,13.1601562 L18.3398438,10.171875 L16.328125,8.16015625 L14.1601562,8.16015625 L14.1601562,13.1601562 L18.3398438,13.1601562 Z"></path></svg> 