<?xml version="1.0" encoding="UTF-8"?> <svg xmlns="http://www.w3.org/2000/svg" width="40" height="40" viewBox="0 0 40 40"><path fill="#E52220" fill-rule="evenodd" d="M5.5,8.359 C4.874,8.359 4.351,8.557 3.943,8.947 C3.53,9.343 3.32,9.865 3.32,10.5 L3.32,16 L37.68,16 L37.68,10.5 C37.68,9.865 37.47,9.343 37.057,8.947 C36.649,8.557 36.126,8.359 35.5,8.359 L5.5,8.359 Z M3.32,30.5 C3.32,31.16 3.53,31.695 3.943,32.091 C4.351,32.482 4.874,32.679 5.5,32.679 L35.5,32.679 C36.126,32.679 36.649,32.482 37.057,32.091 C37.47,31.695 37.68,31.16 37.68,30.5 L37.68,18.359 L3.32,18.359 L3.32,30.5 Z M5.5,35 C4.219,35 3.171,34.58 2.297,33.718 C1.424,32.858 1,31.805 1,30.5 L1,10.5 C1,9.219 1.425,8.172 2.299,7.298 C3.173,6.424 4.221,6 5.5,6 L35.5,6 C36.779,6 37.827,6.424 38.701,7.298 C39.575,8.172 40,9.219 40,10.5 L40,30.5 C40,31.805 39.576,32.858 38.703,33.718 C37.829,34.58 36.781,35 35.5,35 L5.5,35 Z"></path></svg> 