<?xml version="1.0" encoding="UTF-8"?> <svg xmlns="http://www.w3.org/2000/svg" width="36" height="36" viewBox="0 0 36 36"><path fill="#E52220" fill-rule="evenodd" d="M30.6875,31.4285714 C31.0520852,31.4285714 31.3619779,31.5535702 31.6171875,31.8035714 C31.8723971,32.0535727 32,32.3571411 32,32.7142857 C32,33.0714304 31.8723971,33.3749988 31.6171875,33.625 C31.3619779,33.8750012 31.0520852,34 30.6875,34 L5.3125,34 C4.94791484,34 4.63802211,33.8750012 4.3828125,33.625 C4.12760289,33.3749988 4,33.0714304 4,32.7142857 C4,32.3571411 4.12760289,32.0535727 4.3828125,31.8035714 C4.63802211,31.5535702 4.94791484,31.4285714 5.3125,31.4285714 L8.66666667,31.4285714 L8.66666667,23.6071429 L15.6666667,18 L8.66666667,12.3928571 L8.66666667,4.57142857 L5.3125,4.57142857 C4.94791484,4.57142857 4.63802211,4.44642982 4.3828125,4.19642857 C4.12760289,3.94642732 4,3.64285893 4,3.28571429 C4,2.92856964 4.12760289,2.62500125 4.3828125,2.375 C4.63802211,2.12499875 4.94791484,2 5.3125,2 L30.6875,2 C31.0520852,2 31.3619779,2.12499875 31.6171875,2.375 C31.8723971,2.62500125 32,2.92856964 32,3.28571429 C32,3.64285893 31.8723971,3.94642732 31.6171875,4.19642857 C31.3619779,4.44642982 31.0520852,4.57142857 30.6875,4.57142857 L27.3333333,4.57142857 L27.3333333,12.3928571 L20.3333333,18 L27.3333333,23.6071429 L27.3333333,31.4285714 L30.6875,31.4285714 Z M11.2916667,10.9642857 L17.9270833,16.2142857 L18,16.1428571 L18.0729167,16.2142857 L24.7083333,10.9642857 L24.7083333,4.57142857 L11.2916667,4.57142857 L11.2916667,10.9642857 Z M24.7083333,31.4285714 L24.7083333,25.0357143 L18,19.7142857 L11.2916667,25.0357143 L11.2916667,31.4285714 L24.7083333,31.4285714 Z"></path></svg> 