<?xml version="1.0" encoding="UTF-8"?> <svg xmlns="http://www.w3.org/2000/svg" width="36" height="36" viewBox="0 0 36 36"><path fill="#E52220" fill-rule="evenodd" d="M33.9285714,16.6785714 L34,16.8571429 L34,18.4285714 L33.8571429,18.6071429 C33.714285,19.1785743 33.4761921,19.7142832 33.1428571,20.2142857 C33.2619054,20.5714304 33.3214286,20.9285696 33.3214286,21.2857143 C33.3452382,22.2381 33.0714314,23.1428529 32.5,24 C32.5952386,24.2857157 32.6547618,24.5714271 32.6785714,24.8571429 C32.7261907,25.9047671 32.4523839,26.9047571 31.8571429,27.8571429 C31.9761911,28.380955 32.011905,28.9166639 31.9642857,29.4642857 C31.8690471,30.4642907 31.5297648,31.3333296 30.9464286,32.0714286 C30.3630923,32.8095275 29.5952429,33.3333318 28.6428571,33.6428571 C27.9285679,33.8809536 27.0714336,34 26.0714286,34 L4.57142857,34 C3.85713929,34 3.2500025,33.7500025 2.75,33.25 C2.2499975,32.7499975 2,32.1428607 2,31.4285714 L2,18.2857143 C2,17.571425 2.2499975,16.9642882 2.75,16.4642857 C3.2500025,15.9642832 3.85713929,15.7142857 4.57142857,15.7142857 L8.60714286,15.7142857 L9.14285714,15.6071429 C9.50000179,15.5357139 9.92261661,15.3571443 10.4107143,15.0714286 C10.898812,14.7857129 11.2857129,14.4285736 11.5714286,14 C12.0000021,13.3095204 12.6309482,12.2381025 13.4642857,10.7857143 C13.5595243,10.6190468 13.6964277,10.3809539 13.875,10.0714286 C14.0535723,9.76190321 14.1785711,9.535715 14.25,9.39285714 C14.2976193,9.29761857 14.3214286,9.19047679 14.3214286,9.07142857 C14.2976189,8.57142607 14.2738096,7.83333821 14.25,6.85714286 C14.25,6.5476175 14.2380954,6.11905036 14.2142857,5.57142857 C14.1904761,4.21427893 14.7857082,3.22619357 16,2.60714286 C16.7619086,2.20237893 17.547615,2 18.3571429,2 C19.0714321,2 19.7738061,2.15476036 20.4642857,2.46428571 C21.3690521,2.84524 22.0119029,3.5119 22.3928571,4.46428571 L22.7142857,5.32142857 C23.1190496,6.41667214 23.4047611,7.20237857 23.5714286,7.67857143 C24.0000021,8.91667286 24.0595254,10.3333254 23.75,11.9285714 C23.6785711,12.2619064 23.5952386,12.7499968 23.5,13.3928571 L29.7142857,13.3928571 C30.3333364,13.3928571 30.9285686,13.4880943 31.5,13.6785714 C32.7142918,14.1309546 33.4999982,15.0476121 33.8571429,16.4285714 C33.8571429,16.4523811 33.8809521,16.4999996 33.9285714,16.5714286 L33.9285714,16.6785714 Z M8.57142857,31.4285714 L8.57142857,18.2857143 L4.57142857,18.2857143 L4.57142857,31.4285714 L8.57142857,31.4285714 Z M31.4285714,17.75 L31.4285714,17.25 C31.4285714,17.2261904 31.4226191,17.1904764 31.4107143,17.1428571 C31.3988095,17.0952379 31.3809525,17.0714286 31.3571429,17.0714286 C31.2380946,16.5714261 31.0000018,16.2500007 30.6428571,16.1071429 C30.3333318,16.0119043 30.0238111,15.9642857 29.7142857,15.9642857 L20.4642857,15.9642857 L20.9642857,12.9642857 C21.0595243,12.345235 21.1428568,11.8333354 21.2142857,11.4285714 C21.4523821,10.3095182 21.4285729,9.3333375 21.1428571,8.5 C20.95238,7.95237821 20.6785732,7.19048107 20.3214286,6.21428571 C20.2738093,6.14285679 20.1666675,5.85714536 20,5.35714286 C19.8809518,5.09523679 19.7023821,4.91666714 19.4642857,4.82142857 C19.0833314,4.65476107 18.7142875,4.57142857 18.3571429,4.57142857 C17.9761886,4.57142857 17.59524,4.66666571 17.2142857,4.85714286 C17.0476182,4.95238143 16.9404764,5.04761857 16.8928571,5.14285714 C16.8214282,5.23809571 16.7976189,5.35714214 16.8214286,5.5 L16.8214286,6.85714286 C16.8452382,7.69048036 16.8690475,8.369045 16.8928571,8.89285714 C16.9404764,9.5357175 16.7976207,10.1428543 16.4642857,10.7142857 C16.4404761,10.761905 16.3928575,10.8452375 16.3214286,10.9642857 C16.2499996,11.0833339 16.2023811,11.1547618 16.1785714,11.1785714 C15.8928557,11.6785739 15.7261907,11.9642854 15.6785714,12.0357143 L15.6428571,12.0714286 C14.8333293,13.5238168 14.2023832,14.6071393 13.75,15.3214286 L13.75,15.3571429 C13.1309493,16.3095286 12.273815,17.0476164 11.1785714,17.5714286 L11.1428571,31.4285714 L26.0714286,31.4285714 C26.8095275,31.4285714 27.4047596,31.3571436 27.8571429,31.2142857 C28.3095261,31.0476182 28.6666654,30.7976207 28.9285714,30.4642857 C29.1904775,30.1547604 29.3452379,29.7619071 29.3928571,29.2857143 L29.3928571,29.25 C29.4166668,28.9642843 29.3928575,28.6666682 29.3214286,28.3571429 L29.3214286,28.25 L29.1071429,27.3571429 L29.6785714,26.4642857 C29.9880968,25.9880929 30.1309525,25.5119071 30.1071429,25.0357143 C30.0833332,24.9404757 30.0595239,24.8333339 30.0357143,24.7142857 L29.7142857,23.5714286 L30.3571429,22.5714286 C30.6428586,22.1904743 30.7738096,21.7976211 30.75,21.3928571 C30.75,21.2261896 30.7261907,21.0714293 30.6785714,20.9285714 L30.3571429,19.7857143 L31.0357143,18.7857143 C31.1785721,18.5476179 31.2857139,18.2976204 31.3571429,18.0357143 L31.4285714,17.75 Z"></path></svg> 