<svg width="497" height="629" viewBox="0 0 497 629" fill="none" xmlns="http://www.w3.org/2000/svg">
<path fill-rule="evenodd" clip-rule="evenodd" d="M0.00434783 248.547C0.00434783 111.648 111.062 0.666992 248.055 0.666992C385.048 0.666992 496.106 111.648 496.106 248.547C496.106 385.452 385.048 496.434 248.055 496.434C158.022 496.434 79.1902 448.497 35.7246 376.771V628.279H0V248.549H0.00434783L0.00434783 248.547ZM248.055 459.727C364.765 459.727 459.374 365.176 459.374 248.547C459.374 131.924 364.765 37.3735 248.055 37.3735C131.345 37.3735 36.7362 131.924 36.7362 248.547C36.7362 365.176 131.345 459.727 248.055 459.727Z" fill="#888888"/>
</svg>
