<?xml version="1.0" encoding="UTF-8"?> <svg xmlns="http://www.w3.org/2000/svg" width="36" height="36" viewBox="0 0 36 36"><path fill="#E52220" fill-rule="evenodd" d="M18,2 L32,6.57142857 L32,20.2857143 C32,24.0714475 30.6328262,27.303558 27.8984375,29.9821429 C25.1640488,32.6607277 21.8646027,34 18,34 C14.1353973,34 10.8359512,32.6607277 8.1015625,29.9821429 C5.36717383,27.303558 4,24.0714475 4,20.2857143 L4,6.57142857 L18,2 Z M29.375,20.2857143 L29.375,8.5 L18,4.57142857 L6.625,8.5 L6.625,20.2857143 C6.625,23.3571582 7.73696805,25.982132 9.9609375,28.1607143 C12.184907,30.3392966 14.8645677,31.4285714 18,31.4285714 C21.1354323,31.4285714 23.815093,30.3392966 26.0390625,28.1607143 C28.263032,25.982132 29.375,23.3571582 29.375,20.2857143 Z M13.1145833,16.6785714 L16.9427083,20.4285714 L24.125,13.3928571 C24.3680568,13.1547607 24.6597205,13.0357143 25,13.0357143 C25.3402795,13.0357143 25.6319432,13.1547607 25.875,13.3928571 L25.984375,13.5 C26.2274318,13.7380964 26.3489583,14.0238079 26.3489583,14.3571429 C26.3489583,14.6904779 26.2274318,14.9761893 25.984375,15.2142857 L17.8177083,23.2142857 C17.5746516,23.4285725 17.2829878,23.5357143 16.9427083,23.5357143 C16.6024289,23.5357143 16.3107651,23.4285725 16.0677083,23.2142857 L15.9947917,23.1071429 L11.2916667,18.5 C11.0243042,18.2619036 10.890625,17.9642875 10.890625,17.6071429 C10.890625,17.2499982 11.0182279,16.9464298 11.2734375,16.6964286 C11.5286471,16.4464273 11.8385398,16.3214286 12.203125,16.3214286 C12.5677102,16.3214286 12.8715266,16.440475 13.1145833,16.6785714 Z"></path></svg> 